<svg width="163" height="24" viewBox="0 0 163 24" fill="none" xmlns="http://www.w3.org/2000/svg">
<rect x="2" y="3" width="20" height="18" rx="4" stroke="white" stroke-width="1.5"/>
<path d="M2 7L9.50122 13.001C10.9621 14.1697 13.0379 14.1697 14.4988 13.001L22 7" stroke="white" stroke-width="1.5" stroke-linecap="round" stroke-linejoin="round"/>
<path d="M35.12 5.52H36.4V18H35.12V5.52ZM39.12 10.64H40.72L37.52 13.68L41.04 18H39.44L35.92 13.68L39.12 10.64ZM43.5269 10.64V18H42.2469V10.64H43.5269ZM45.7509 12.048C45.5802 11.92 45.4255 11.8293 45.2869 11.776C45.1482 11.712 44.9722 11.68 44.7589 11.68C44.4389 11.68 44.1882 11.76 44.0069 11.92C43.8255 12.08 43.6975 12.2987 43.6229 12.576C43.5589 12.8533 43.5269 13.168 43.5269 13.52H42.9509C42.9509 12.9333 43.0522 12.416 43.2549 11.968C43.4682 11.5093 43.7402 11.1467 44.0709 10.88C44.4015 10.6133 44.7375 10.48 45.0789 10.48C45.3455 10.48 45.5909 10.5173 45.8149 10.592C46.0495 10.656 46.2629 10.7893 46.4549 10.992L45.7509 12.048ZM47.7313 7.6C47.7313 7.35467 47.8166 7.14667 47.9873 6.976C48.1686 6.80533 48.3766 6.72 48.6113 6.72C48.8566 6.72 49.0646 6.80533 49.2353 6.976C49.4059 7.14667 49.4913 7.35467 49.4913 7.6C49.4913 7.83467 49.4059 8.04267 49.2353 8.224C49.0646 8.39467 48.8566 8.48 48.6113 8.48C48.3766 8.48 48.1686 8.39467 47.9873 8.224C47.8166 8.04267 47.7313 7.83467 47.7313 7.6ZM47.9713 10.64H49.2513V18H47.9713V10.64ZM52.1915 15.744C52.3408 15.968 52.5115 16.176 52.7035 16.368C52.8955 16.56 53.1142 16.7147 53.3595 16.832C53.6155 16.9387 53.8928 16.992 54.1915 16.992C54.5542 16.992 54.8368 16.912 55.0395 16.752C55.2528 16.5813 55.3595 16.352 55.3595 16.064C55.3595 15.808 55.2742 15.5947 55.1035 15.424C54.9435 15.2427 54.7355 15.0933 54.4795 14.976C54.2235 14.848 53.9515 14.7307 53.6635 14.624C53.3435 14.496 53.0182 14.3467 52.6875 14.176C52.3675 13.9947 52.0955 13.7653 51.8715 13.488C51.6582 13.2 51.5515 12.8427 51.5515 12.416C51.5515 11.9787 51.6635 11.616 51.8875 11.328C52.1222 11.04 52.4208 10.8267 52.7835 10.688C53.1568 10.5493 53.5408 10.48 53.9355 10.48C54.3302 10.48 54.6982 10.544 55.0395 10.672C55.3915 10.8 55.7008 10.9707 55.9675 11.184C56.2342 11.3973 56.4422 11.6427 56.5915 11.92L55.5675 12.576C55.3648 12.2987 55.1088 12.0693 54.7995 11.888C54.5008 11.7067 54.1595 11.616 53.7755 11.616C53.5088 11.616 53.2795 11.6747 53.0875 11.792C52.8955 11.9093 52.7995 12.0907 52.7995 12.336C52.7995 12.528 52.8742 12.6987 53.0235 12.848C53.1728 12.9973 53.3648 13.1307 53.5995 13.248C53.8342 13.3653 54.0795 13.4773 54.3355 13.584C54.7622 13.7547 55.1515 13.9413 55.5035 14.144C55.8555 14.336 56.1328 14.5707 56.3355 14.848C56.5488 15.1253 56.6555 15.4827 56.6555 15.92C56.6555 16.56 56.4208 17.0933 55.9515 17.52C55.4928 17.9467 54.8848 18.16 54.1275 18.16C53.6368 18.16 53.1942 18.0747 52.7995 17.904C52.4048 17.7227 52.0688 17.4933 51.7915 17.216C51.5248 16.9387 51.3222 16.656 51.1835 16.368L52.1915 15.744ZM57.2206 10.64H60.9006V11.84H57.2206V10.64ZM58.4206 8.08H59.7006V18H58.4206V8.08ZM65.2404 12.88C65.2404 13.328 65.347 13.68 65.5604 13.936C65.7844 14.192 66.115 14.32 66.5524 14.32C66.819 14.32 67.0964 14.2507 67.3844 14.112C67.6724 13.9733 67.9177 13.744 68.1204 13.424C68.323 13.0933 68.4244 12.6453 68.4244 12.08C68.4244 11.7813 68.3604 11.5253 68.2324 11.312C68.115 11.0987 67.9497 10.9333 67.7364 10.816C67.5337 10.6987 67.299 10.64 67.0324 10.64C66.7444 10.64 66.4617 10.7307 66.1844 10.912C65.907 11.0933 65.6777 11.3547 65.4964 11.696C65.3257 12.0267 65.2404 12.4213 65.2404 12.88ZM64.0244 12.928C64.0244 12.1813 64.179 11.5573 64.4884 11.056C64.8084 10.5547 65.1977 10.176 65.6564 9.92C66.1257 9.65333 66.5844 9.52 67.0324 9.52C67.491 9.52 67.8644 9.648 68.1524 9.904C68.4404 10.1493 68.6537 10.4693 68.7924 10.864C68.931 11.248 69.0004 11.6533 69.0004 12.08C69.0004 12.816 68.8724 13.4347 68.6164 13.936C68.371 14.4373 68.0404 14.816 67.6244 15.072C67.2084 15.3173 66.7444 15.44 66.2324 15.44C65.8484 15.44 65.4857 15.344 65.1444 15.152C64.8137 14.9493 64.5417 14.6613 64.3284 14.288C64.1257 13.904 64.0244 13.4507 64.0244 12.928ZM61.5444 12.88C61.5444 12.0053 61.6884 11.1893 61.9764 10.432C62.275 9.67467 62.6964 9.01333 63.2404 8.448C63.7844 7.88267 64.4244 7.44 65.1604 7.12C65.907 6.8 66.7284 6.64 67.6244 6.64C68.4777 6.64 69.2244 6.784 69.8644 7.072C70.5044 7.36 71.0377 7.74933 71.4644 8.24C71.891 8.73067 72.211 9.28 72.4244 9.888C72.6377 10.496 72.7444 11.12 72.7444 11.76C72.7444 12.464 72.6537 13.0613 72.4724 13.552C72.291 14.0427 72.051 14.4373 71.7524 14.736C71.4644 15.0347 71.155 15.2533 70.8244 15.392C70.4937 15.5307 70.179 15.6 69.8804 15.6C69.5604 15.6 69.2777 15.5147 69.0324 15.344C68.7977 15.1627 68.627 14.928 68.5204 14.64C68.4137 14.352 68.387 14.032 68.4404 13.68H68.3284L68.9044 9.68H70.1044L69.4484 13.376C69.4377 13.4293 69.427 13.4987 69.4164 13.584C69.4164 13.6693 69.4164 13.744 69.4164 13.808C69.4164 13.936 69.4324 14.0587 69.4644 14.176C69.4964 14.2827 69.555 14.3733 69.6404 14.448C69.7364 14.512 69.8697 14.544 70.0404 14.544C70.2004 14.544 70.403 14.4533 70.6484 14.272C70.9044 14.0907 71.1284 13.7973 71.3204 13.392C71.523 12.976 71.6244 12.432 71.6244 11.76C71.6244 11.2267 71.539 10.72 71.3684 10.24C71.2084 9.74933 70.963 9.312 70.6324 8.928C70.3017 8.544 69.8857 8.24 69.3844 8.016C68.883 7.792 68.2964 7.68 67.6244 7.68C66.8777 7.68 66.195 7.81333 65.5764 8.08C64.9684 8.34667 64.4457 8.71467 64.0084 9.184C63.5817 9.65333 63.251 10.2027 63.0164 10.832C62.7817 11.4613 62.6644 12.144 62.6644 12.88C62.6644 13.744 62.835 14.496 63.1764 15.136C63.5177 15.7653 63.9977 16.256 64.6164 16.608C65.2457 16.9493 65.9817 17.12 66.8244 17.12C67.3897 17.12 67.9337 17.0667 68.4564 16.96C68.9897 16.8427 69.5177 16.6187 70.0404 16.288L70.6004 17.2C70.1204 17.488 69.5977 17.7227 69.0324 17.904C68.4777 18.0747 67.7417 18.16 66.8244 18.16C65.683 18.16 64.7177 17.9413 63.9284 17.504C63.1497 17.0667 62.5577 16.4533 62.1524 15.664C61.747 14.864 61.5444 13.936 61.5444 12.88ZM77.3449 18.16C76.6622 18.16 76.0542 18 75.5209 17.68C74.9982 17.3493 74.5875 16.896 74.2889 16.32C74.0009 15.744 73.8569 15.0773 73.8569 14.32C73.8569 13.552 74.0062 12.88 74.3049 12.304C74.6142 11.728 75.0409 11.28 75.5849 10.96C76.1395 10.64 76.7795 10.48 77.5049 10.48C78.2302 10.48 78.8489 10.6347 79.3609 10.944C79.8835 11.2427 80.2835 11.6747 80.5609 12.24C80.8382 12.8053 80.9769 13.4773 80.9769 14.256C80.9769 14.3307 80.9715 14.4107 80.9609 14.496C80.9609 14.5707 80.9609 14.6187 80.9609 14.64H74.6729V13.552H79.9529L79.4409 14.288C79.4729 14.2347 79.5049 14.1547 79.5369 14.048C79.5689 13.9307 79.5849 13.8347 79.5849 13.76C79.5849 13.3227 79.4942 12.944 79.3129 12.624C79.1422 12.304 78.9022 12.0533 78.5929 11.872C78.2835 11.6907 77.9209 11.6 77.5049 11.6C77.0142 11.6 76.5929 11.7067 76.2409 11.92C75.8995 12.1227 75.6329 12.4213 75.4409 12.816C75.2595 13.2 75.1635 13.6747 75.1529 14.24C75.1529 14.816 75.2435 15.3067 75.4249 15.712C75.6062 16.1173 75.8729 16.4267 76.2249 16.64C76.5769 16.8533 77.0035 16.96 77.5049 16.96C78.0062 16.96 78.4489 16.8533 78.8329 16.64C79.2169 16.416 79.5422 16.08 79.8089 15.632L80.8489 16.288C80.4649 16.9067 79.9795 17.376 79.3929 17.696C78.8169 18.0053 78.1342 18.16 77.3449 18.16ZM86.4169 10.64H87.8569L85.3449 14.208L88.0169 18H86.5769L84.6569 15.216L82.7369 18H81.2969L83.9689 14.208L81.4569 10.64H82.8969L84.6569 13.2L86.4169 10.64ZM89.7916 15.728C89.7916 16.0053 89.8556 16.2453 89.9836 16.448C90.1223 16.6507 90.309 16.8053 90.5436 16.912C90.789 17.008 91.0663 17.056 91.3756 17.056C91.7703 17.056 92.1223 16.976 92.4316 16.816C92.7516 16.656 93.0023 16.432 93.1836 16.144C93.3756 15.8453 93.4716 15.504 93.4716 15.12L93.7276 16.08C93.7276 16.5493 93.5836 16.9387 93.2956 17.248C93.0183 17.5573 92.6716 17.7867 92.2556 17.936C91.8503 18.0853 91.445 18.16 91.0396 18.16C90.5916 18.16 90.1703 18.0693 89.7756 17.888C89.3916 17.696 89.0823 17.424 88.8476 17.072C88.613 16.72 88.4956 16.2933 88.4956 15.792C88.4956 15.0773 88.7463 14.5067 89.2476 14.08C89.7596 13.6427 90.469 13.424 91.3756 13.424C91.909 13.424 92.3516 13.488 92.7036 13.616C93.0663 13.7333 93.3543 13.872 93.5676 14.032C93.781 14.1813 93.925 14.304 93.9996 14.4V15.152C93.6263 14.896 93.2423 14.7147 92.8476 14.608C92.453 14.4907 92.0316 14.432 91.5836 14.432C91.1676 14.432 90.8263 14.4853 90.5596 14.592C90.3036 14.6987 90.1116 14.848 89.9836 15.04C89.8556 15.232 89.7916 15.4613 89.7916 15.728ZM89.5996 12.336L88.9756 11.392C89.253 11.1893 89.6316 10.9867 90.1116 10.784C90.6023 10.5813 91.189 10.48 91.8716 10.48C92.4476 10.48 92.949 10.5707 93.3756 10.752C93.813 10.9227 94.149 11.1733 94.3836 11.504C94.629 11.8347 94.7516 12.24 94.7516 12.72V18H93.4716V12.896C93.4716 12.64 93.429 12.432 93.3436 12.272C93.2583 12.1013 93.1356 11.968 92.9756 11.872C92.8263 11.776 92.6503 11.7067 92.4476 11.664C92.245 11.6213 92.0316 11.6 91.8076 11.6C91.445 11.6 91.1143 11.6427 90.8156 11.728C90.5276 11.8133 90.2823 11.9147 90.0796 12.032C89.877 12.1493 89.717 12.2507 89.5996 12.336ZM106.999 13.36V18H105.719V13.52C105.719 12.8907 105.601 12.4267 105.367 12.128C105.143 11.8293 104.791 11.68 104.311 11.68C103.959 11.68 103.655 11.7547 103.399 11.904C103.143 12.0427 102.945 12.2507 102.807 12.528C102.668 12.8053 102.599 13.136 102.599 13.52V18H101.319V13.52C101.319 12.8907 101.201 12.4267 100.967 12.128C100.743 11.8293 100.391 11.68 99.9108 11.68C99.5588 11.68 99.2548 11.7547 98.9988 11.904C98.7428 12.0427 98.5454 12.2507 98.4068 12.528C98.2681 12.8053 98.1988 13.136 98.1988 13.52V18H96.9188V10.64H98.1988V11.712C98.4228 11.296 98.7001 10.9867 99.0308 10.784C99.3721 10.5813 99.7721 10.48 100.231 10.48C100.743 10.48 101.18 10.6027 101.543 10.848C101.916 11.0827 102.188 11.4187 102.359 11.856C102.615 11.3973 102.935 11.056 103.319 10.832C103.703 10.5973 104.14 10.48 104.631 10.48C105.132 10.48 105.559 10.592 105.911 10.816C106.263 11.04 106.529 11.3707 106.711 11.808C106.903 12.2347 106.999 12.752 106.999 13.36ZM110.603 21.52H109.323V10.64H110.603V21.52ZM116.763 14.32C116.763 15.1093 116.598 15.792 116.267 16.368C115.936 16.944 115.494 17.3867 114.939 17.696C114.395 18.0053 113.787 18.16 113.115 18.16C112.507 18.16 111.968 18.0053 111.499 17.696C111.04 17.3867 110.678 16.944 110.411 16.368C110.155 15.792 110.027 15.1093 110.027 14.32C110.027 13.52 110.155 12.8373 110.411 12.272C110.678 11.696 111.04 11.2533 111.499 10.944C111.968 10.6347 112.507 10.48 113.115 10.48C113.787 10.48 114.395 10.6347 114.939 10.944C115.494 11.2533 115.936 11.696 116.267 12.272C116.598 12.8373 116.763 13.52 116.763 14.32ZM115.467 14.32C115.467 13.7547 115.35 13.2747 115.115 12.88C114.891 12.4853 114.587 12.1867 114.203 11.984C113.83 11.7813 113.414 11.68 112.955 11.68C112.582 11.68 112.214 11.7813 111.851 11.984C111.488 12.1867 111.19 12.4853 110.955 12.88C110.72 13.2747 110.603 13.7547 110.603 14.32C110.603 14.8853 110.72 15.3653 110.955 15.76C111.19 16.1547 111.488 16.4533 111.851 16.656C112.214 16.8587 112.582 16.96 112.955 16.96C113.414 16.96 113.83 16.8587 114.203 16.656C114.587 16.4533 114.891 16.1547 115.115 15.76C115.35 15.3653 115.467 14.8853 115.467 14.32ZM118.528 5.52H119.808V18H118.528V5.52ZM125.064 18.16C124.381 18.16 123.773 18 123.24 17.68C122.717 17.3493 122.306 16.896 122.008 16.32C121.72 15.744 121.576 15.0773 121.576 14.32C121.576 13.552 121.725 12.88 122.024 12.304C122.333 11.728 122.76 11.28 123.304 10.96C123.858 10.64 124.498 10.48 125.224 10.48C125.949 10.48 126.568 10.6347 127.08 10.944C127.602 11.2427 128.002 11.6747 128.28 12.24C128.557 12.8053 128.696 13.4773 128.696 14.256C128.696 14.3307 128.69 14.4107 128.68 14.496C128.68 14.5707 128.68 14.6187 128.68 14.64H122.392V13.552H127.672L127.16 14.288C127.192 14.2347 127.224 14.1547 127.256 14.048C127.288 13.9307 127.304 13.8347 127.304 13.76C127.304 13.3227 127.213 12.944 127.032 12.624C126.861 12.304 126.621 12.0533 126.312 11.872C126.002 11.6907 125.64 11.6 125.224 11.6C124.733 11.6 124.312 11.7067 123.96 11.92C123.618 12.1227 123.352 12.4213 123.16 12.816C122.978 13.2 122.882 13.6747 122.872 14.24C122.872 14.816 122.962 15.3067 123.144 15.712C123.325 16.1173 123.592 16.4267 123.944 16.64C124.296 16.8533 124.722 16.96 125.224 16.96C125.725 16.96 126.168 16.8533 126.552 16.64C126.936 16.416 127.261 16.08 127.528 15.632L128.568 16.288C128.184 16.9067 127.698 17.376 127.112 17.696C126.536 18.0053 125.853 18.16 125.064 18.16ZM129.973 17.36C129.973 17.1147 130.058 16.9067 130.229 16.736C130.41 16.5653 130.618 16.48 130.853 16.48C131.098 16.48 131.306 16.5653 131.477 16.736C131.648 16.9067 131.733 17.1147 131.733 17.36C131.733 17.5947 131.648 17.8027 131.477 17.984C131.306 18.1547 131.098 18.24 130.853 18.24C130.618 18.24 130.41 18.1547 130.229 17.984C130.058 17.8027 129.973 17.5947 129.973 17.36ZM135.026 14.32C135.026 14.832 135.133 15.2853 135.346 15.68C135.57 16.0747 135.869 16.3893 136.242 16.624C136.626 16.848 137.058 16.96 137.538 16.96C137.933 16.96 138.301 16.9013 138.642 16.784C138.994 16.656 139.298 16.4907 139.554 16.288C139.81 16.0747 139.991 15.8507 140.098 15.616V17.216C139.842 17.5147 139.474 17.7493 138.994 17.92C138.525 18.08 138.039 18.16 137.538 18.16C136.823 18.16 136.178 17.9947 135.602 17.664C135.026 17.3333 134.567 16.88 134.226 16.304C133.895 15.7173 133.73 15.056 133.73 14.32C133.73 13.5733 133.895 12.912 134.226 12.336C134.567 11.76 135.026 11.3067 135.602 10.976C136.178 10.6453 136.823 10.48 137.538 10.48C138.039 10.48 138.525 10.5653 138.994 10.736C139.474 10.896 139.842 11.1253 140.098 11.424V13.024C139.991 12.7787 139.81 12.5547 139.554 12.352C139.298 12.1493 138.994 11.9893 138.642 11.872C138.301 11.744 137.933 11.68 137.538 11.68C137.058 11.68 136.626 11.792 136.242 12.016C135.869 12.24 135.57 12.5547 135.346 12.96C135.133 13.3547 135.026 13.808 135.026 14.32ZM141.451 14.32C141.451 13.5733 141.616 12.912 141.947 12.336C142.288 11.76 142.747 11.3067 143.323 10.976C143.899 10.6453 144.544 10.48 145.259 10.48C145.984 10.48 146.629 10.6453 147.195 10.976C147.771 11.3067 148.224 11.76 148.555 12.336C148.896 12.912 149.067 13.5733 149.067 14.32C149.067 15.056 148.896 15.7173 148.555 16.304C148.224 16.88 147.771 17.3333 147.195 17.664C146.629 17.9947 145.984 18.16 145.259 18.16C144.544 18.16 143.899 17.9947 143.323 17.664C142.747 17.3333 142.288 16.88 141.947 16.304C141.616 15.7173 141.451 15.056 141.451 14.32ZM142.747 14.32C142.747 14.832 142.853 15.2853 143.067 15.68C143.291 16.0747 143.589 16.3893 143.963 16.624C144.347 16.848 144.779 16.96 145.259 16.96C145.739 16.96 146.165 16.848 146.539 16.624C146.923 16.3893 147.221 16.0747 147.435 15.68C147.659 15.2853 147.771 14.832 147.771 14.32C147.771 13.808 147.659 13.3547 147.435 12.96C147.221 12.5547 146.923 12.24 146.539 12.016C146.165 11.792 145.739 11.68 145.259 11.68C144.779 11.68 144.347 11.792 143.963 12.016C143.589 12.24 143.291 12.5547 143.067 12.96C142.853 13.3547 142.747 13.808 142.747 14.32ZM160.905 13.36V18H159.625V13.52C159.625 12.8907 159.508 12.4267 159.273 12.128C159.049 11.8293 158.697 11.68 158.217 11.68C157.865 11.68 157.561 11.7547 157.305 11.904C157.049 12.0427 156.852 12.2507 156.713 12.528C156.574 12.8053 156.505 13.136 156.505 13.52V18H155.225V13.52C155.225 12.8907 155.108 12.4267 154.873 12.128C154.649 11.8293 154.297 11.68 153.817 11.68C153.465 11.68 153.161 11.7547 152.905 11.904C152.649 12.0427 152.452 12.2507 152.313 12.528C152.174 12.8053 152.105 13.136 152.105 13.52V18H150.825V10.64H152.105V11.712C152.329 11.296 152.606 10.9867 152.937 10.784C153.278 10.5813 153.678 10.48 154.137 10.48C154.649 10.48 155.086 10.6027 155.449 10.848C155.822 11.0827 156.094 11.4187 156.265 11.856C156.521 11.3973 156.841 11.056 157.225 10.832C157.609 10.5973 158.046 10.48 158.537 10.48C159.038 10.48 159.465 10.592 159.817 10.816C160.169 11.04 160.436 11.3707 160.617 11.808C160.809 12.2347 160.905 12.752 160.905 13.36Z" fill="white"/>
</svg>
